<svg id="SvgjsSvg1001" width="288" height="288" xmlns="http://www.w3.org/2000/svg" version="1.1" xmlns:xlink="http://www.w3.org/1999/xlink" xmlns:svgjs="http://svgjs.com/svgjs"><defs id="SvgjsDefs1002"></defs><g id="SvgjsG1008" transform="matrix(1,0,0,1,0,0)"><svg xmlns="http://www.w3.org/2000/svg" fill="none" viewBox="0 0 39 54" width="288" height="288"><path fill="#d0256a" fill-rule="evenodd" d="M3.566 42.484h-.795l-.447.687c-.113-.103-.195-.177-.32-.288l-.899.505-.102.665-.47-.266L0 44.894l.338.114v.517c.596.204 1.049.72 1.724.544.04.458.458.609.724.668.63.14 1.16.637 1.753.649.692.013 1.218.394 1.82.566.723.206 1.468.427 2.185.704.7.27 1.435.622 2.238.596 1.269.736 2.743.82 4.11 1.239 1.066.326 2.14.732 3.287.816.4.03.78.444 1.197-.167.302.554.659.86 1.253.84.418-.013.856.086 1.258.219 1.05.346 2.146.457 3.22.678.986.203 2 .273 2.966.486 1.303.289 2.583.087 3.869.17.226.014.459-.17.697-.206.258-.038.594.09.771-.033.231-.16.402-.015.59-.052.277-.055.55-.135.881-.218.122-.214.532-.3.531-.723 0-.106.203-.31.303-.304.756.044.931-.579 1.258-1.104.127-1.022-.37-1.738-1.328-2.18a1.535 1.535 0 00-.395-.135c-.532-.084-1.1-.067-1.59-.253-.54-.205-1.067-.19-1.61-.203-.52-.014-1.133.135-1.535-.091-.448-.253-1.006.147-1.328-.355-.352.372-.7-.185-1.052-.005-.376-.324-.844-.15-1.257-.243-.383-.087-.778-.137-1.146-.234-1.211-.32-2.439-.508-3.677-.653-.537-.47-1.278-.024-1.854-.439-.495-.356-1.159-.291-1.733-.418-.653-.145-1.337-.255-2.008-.364-.627-.102-1.243-.275-1.873-.392-.928-.173-1.813-.575-2.773-.646-.404-.477-1.041-.066-1.524-.429-.404-.305-1.004-.357-1.494-.436-1.199-.192-2.258-.776-3.423-1.03-.275-.06-.55-.123-.87-.195l-.124.81-.813-.518M22.447 29.64l.168.168.475-.73.191.541c.331-.04.78.035 1.014-.154.38-.308.628.133.958.016.299-.106.733.034.95-.136.355-.277.713-.122 1.053-.21.335-.085.651-.241 1-.377.187.06.408.129.698.22.11-.203.217-.406.406-.76l.216.697c1.036-.596 2.278-.259 3.315-.78l.11-.492.175.515.837-.221.067-.614.273.197.465-.233.207.468.803-.567.057-.514.793.399c.396-.574 1.205-.84 1.459-1.611a77.973 77.973 0 00-.251-.276c.216-.217.315-.157.545.33.073.005.147.016.22.01.03-.002.056-.04.153-.113l-.235-.54.267-.69-.678.247.204-.808-.922.417.201.247-.63.322v-.76l-.708-.361c-.536.222-1.081.45-1.639.68-.248-.097-1.203.026-1.635.223l-.273-.248-.744.354.21.24c-.05.036-.119.121-.157.109-.43-.134-.835-.463-1.304-.024-.087.08-.392-.069-.595-.115-.93-.212-1.782-.08-2.533.524-.175-.048-.368-.144-.558-.14-.224.003-.581.208-.647.13-.338-.406-.514.088-.765.09-.246.004-.473.018-.733.136-.44.2-.959.243-1.451.305-1.654.208-3.27.557-4.866 1.056-1.233.386-2.489.704-3.674 1.219-.798.346-1.665.667-2.293 1.233-.566.51-1.237.962-1.68 1.69l.225.351-.194.224.84.794c.345-.104.705-.25.907-.747l.107.716h.322l.156-.41.386.246c.113-.085.225-.17.335-.251l.544.504c.274-.338.465-.64.721-.87.249-.222.77-.007.887-.58l-.24-.37.753-.039-.37.418c.285-.015.522.039.683-.048.38-.206.77-.316 1.185-.428.39-.106.766-.151 1.158-.193.35-.037.688-.17 1.037-.21.369-.042.753.023 1.115-.047.322-.061.62-.243.924-.37M29.505 1.5V.55c-.385-.406-.83-.604-1.501-.537l-.314.524c-.746-.46-1.03.538-1.617.38-.841.557-1.469 1.334-2.332 1.82-.126.072-.216.208-.322.315-.742.753-1.57 1.396-2.437 2.004-.595.419-1.133.926-1.664 1.429-.58.549-1.184 1.053-1.888 1.435-.127.068-.215.208-.322.313-.428.419-.814.897-1.298 1.237-.39.273-.677.636-1.022.941-.597.528-1.093 1.17-1.625 1.769-.536.603-1.087 1.194-1.584 1.828-.207.265-.291.626-.437.956l1.046.917c.319.18.48-.42.857-.558l.31.239 1.471-.305c1.248-1.02 2.701-2.105 4.058-3.32a13.147 13.147 0 012.152-1.569c.556-.322.99-.854 1.493-1.277 1.335-1.121 2.676-2.272 3.804-3.59 1.059-1.24 2.355-2.292 3.172-4.002" clip-rule="evenodd" class="colorFF9981 svgShape"></path></svg></g></svg>