<svg xmlns="http://www.w3.org/2000/svg" viewBox="0 0 1025.17 240"><defs><style>.cls-1{fill:#071124;}.cls-2{fill:#fff;}</style></defs><g id="Layer_2" data-name="Layer 2"><g id="Layer_1-2" data-name="Layer 1"><circle class="cls-1" cx="120" cy="120" r="120"/><path class="cls-2" d="M136,60H78V180h24V144h34a42,42,0,0,0,0-84Zm0,60H102V84h34a18,18,0,0,1,0,36Z"/><path class="cls-1" d="M320,160V80h36.75c17.09,0,26.39,11.55,26.39,25.33s-9.42,25.21-26.39,25.21h-20V160Zm46.07-54.67c0-6.6-5.08-10.6-11.67-10.6H336.73v21.09H354.4C361,115.82,366.07,111.81,366.07,105.33Z"/><path class="cls-1" d="M393.32,160V101.68h15v7.66c4.12-5,11.08-9.07,18.15-9.07v14.6a19.55,19.55,0,0,0-4.13-.35c-4.95,0-11.55,2.83-14,6.48v39Z"/><path class="cls-1" d="M432.1,130.07c0-16.14,11.31-29.8,30-29.8s30.16,13.66,30.16,29.8S481,160,462.15,160,432.1,146.21,432.1,130.07Zm44.66,0c0-8.83-5.19-16.49-14.61-16.49s-14.5,7.66-14.5,16.49,5.18,16.61,14.5,16.61S476.76,139,476.76,130.07Z"/><path class="cls-1" d="M542.65,160v-8.72A21.94,21.94,0,0,1,525.1,160c-14.26,0-25.21-10.84-25.21-29.93,0-18.49,10.72-29.8,25.21-29.8A21.58,21.58,0,0,1,542.65,109V80h15.09v80Zm0-19.8V120.06c-2.47-3.77-7.89-6.48-12.84-6.48-8.6,0-14.49,6.71-14.49,16.49s5.89,16.61,14.49,16.61C534.76,146.68,540.18,144,542.65,140.2Z"/><path class="cls-1" d="M611,160v-8.6a27.06,27.06,0,0,1-20,8.6c-12.49,0-18.38-6.84-18.38-17.91V101.68h15V136.2c0,7.89,4.13,10.48,10.49,10.48a16.75,16.75,0,0,0,13-6.48V101.68h15V160Z"/><path class="cls-1" d="M637.23,130.07c0-17.43,12.72-29.8,30.16-29.8,11.67,0,18.74,5.06,22.51,10.25l-9.79,9.18a13.8,13.8,0,0,0-12-6.12c-9.08,0-15.44,6.6-15.44,16.49s6.36,16.61,15.44,16.61a14.16,14.16,0,0,0,12-6.24l9.79,9.19c-3.77,5.18-10.84,10.37-22.51,10.37C650,160,637.23,147.63,637.23,130.07Z"/><path class="cls-1" d="M702.76,144.33V114.76h-9.42V101.68h9.42V86.13h15v15.55h11.54v13.08H717.73v25.56c0,3.65,1.88,6.36,5.18,6.36,2.23,0,4.36-.82,5.18-1.76l3.18,11.42c-2.23,2-6.24,3.66-12.49,3.66C708.3,160,702.76,154.58,702.76,144.33Z"/><path class="cls-1" d="M825.11,160V125.48H788V160H771.27V80H788v30.87h37.12V80H842v80Z"/><path class="cls-1" d="M895.5,160v-8.6a27.06,27.06,0,0,1-20,8.6c-12.49,0-18.38-6.84-18.38-17.91V101.68h14.95V136.2c0,7.89,4.13,10.48,10.49,10.48a16.75,16.75,0,0,0,13-6.48V101.68h15V160Z"/><path class="cls-1" d="M963.75,160V124.18c0-7.89-4.12-10.6-10.49-10.6a16.66,16.66,0,0,0-13,6.6V160h-15V101.68h15V109a26.63,26.63,0,0,1,19.92-8.71c12.6,0,18.61,7.06,18.61,18.14V160Z"/><path class="cls-1" d="M996.66,144.33V114.76h-9.42V101.68h9.42V86.13h15v15.55h11.54v13.08h-11.54v25.56c0,3.65,1.88,6.36,5.18,6.36,2.23,0,4.36-.82,5.19-1.76l3.17,11.42c-2.23,2-6.24,3.66-12.49,3.66C1002.2,160,996.66,154.58,996.66,144.33Z"/></g></g></svg>