<svg width="530" height="530" viewBox="0 0 530 530" fill="none" xmlns="http://www.w3.org/2000/svg">
<path d="M265 0L494.497 132.5V397.5L265 530L35.5033 397.5V132.5L265 0Z" fill="#D1287A"/>
<path d="M55.6898 144.155L265 23.3094L474.31 144.155V385.845L265 506.691L55.6898 385.845V144.155Z" stroke="white" stroke-width="4"/>
<path d="M87.6879 268V221.2H100.936L107.992 240.352C108.424 241.648 108.832 242.992 109.216 244.384C109.6 245.776 110.008 247.168 110.44 248.56H110.728C111.16 247.168 111.568 245.776 111.952 244.384C112.336 242.992 112.744 241.648 113.176 240.352L119.944 221.2H133.192V268H121.96V254.176C121.96 252.592 122.056 250.816 122.248 248.848C122.44 246.832 122.656 244.816 122.896 242.8C123.136 240.784 123.352 239.008 123.544 237.472H123.256L119.368 248.704L113.608 264.184H106.984L101.224 248.704L97.4799 237.472H97.1919C97.3839 239.008 97.5999 240.784 97.8399 242.8C98.0799 244.816 98.2959 246.832 98.4879 248.848C98.6799 250.816 98.7759 252.592 98.7759 254.176V268H87.6879ZM158.562 268.864C155.49 268.864 152.586 268.12 149.85 266.632C147.162 265.144 144.954 263.008 143.226 260.224C141.546 257.392 140.706 253.984 140.706 250C140.706 246.016 141.546 242.632 143.226 239.848C144.954 237.016 147.162 234.856 149.85 233.368C152.586 231.88 155.49 231.136 158.562 231.136C161.634 231.136 164.514 231.88 167.202 233.368C169.938 234.856 172.146 237.016 173.826 239.848C175.554 242.632 176.418 246.016 176.418 250C176.418 253.984 175.554 257.392 173.826 260.224C172.146 263.008 169.938 265.144 167.202 266.632C164.514 268.12 161.634 268.864 158.562 268.864ZM158.562 258.928C160.434 258.928 161.754 258.136 162.522 256.552C163.338 254.92 163.746 252.736 163.746 250C163.746 247.264 163.338 245.104 162.522 243.52C161.754 241.888 160.434 241.072 158.562 241.072C156.69 241.072 155.346 241.888 154.53 243.52C153.762 245.104 153.378 247.264 153.378 250C153.378 252.736 153.762 254.92 154.53 256.552C155.346 258.136 156.69 258.928 158.562 258.928ZM193.534 268.864C191.23 268.864 188.782 268.408 186.19 267.496C183.646 266.536 181.438 265.312 179.566 263.824L185.038 256.192C188.302 258.592 191.23 259.792 193.822 259.792C195.118 259.792 196.03 259.624 196.558 259.288C197.134 258.904 197.422 258.352 197.422 257.632C197.422 256.672 196.726 255.928 195.334 255.4C193.942 254.824 192.334 254.176 190.51 253.456C189.118 252.88 187.726 252.16 186.334 251.296C184.99 250.384 183.862 249.232 182.95 247.84C182.038 246.448 181.582 244.768 181.582 242.8C181.582 239.248 182.902 236.416 185.542 234.304C188.182 232.192 191.614 231.136 195.838 231.136C198.814 231.136 201.358 231.64 203.47 232.648C205.63 233.608 207.502 234.688 209.086 235.888L203.614 243.232C202.318 242.272 201.046 241.528 199.798 241C198.55 240.472 197.374 240.208 196.27 240.208C194.158 240.208 193.102 240.88 193.102 242.224C193.102 243.136 193.75 243.856 195.046 244.384C196.39 244.864 197.95 245.44 199.726 246.112C201.166 246.64 202.582 247.336 203.974 248.2C205.414 249.064 206.59 250.192 207.502 251.584C208.462 252.976 208.942 254.752 208.942 256.912C208.942 260.272 207.622 263.104 204.982 265.408C202.39 267.712 198.574 268.864 193.534 268.864ZM228.426 268.864C223.77 268.864 220.386 267.52 218.274 264.832C216.21 262.096 215.178 258.544 215.178 254.176V241.648H210.426V232.432L215.898 232L217.338 222.64H227.562V232H235.77V241.648H227.562V253.96C227.562 255.928 227.994 257.296 228.858 258.064C229.722 258.832 230.73 259.216 231.882 259.216C232.458 259.216 233.01 259.168 233.538 259.072C234.114 258.928 234.618 258.784 235.05 258.64L236.922 267.568C236.01 267.856 234.858 268.144 233.466 268.432C232.074 268.72 230.394 268.864 228.426 268.864ZM257.844 268V221.2H270.228V257.632H287.94V268H257.844ZM309.945 268.864C306.873 268.864 303.969 268.12 301.233 266.632C298.545 265.144 296.337 263.008 294.609 260.224C292.929 257.392 292.089 253.984 292.089 250C292.089 246.016 292.929 242.632 294.609 239.848C296.337 237.016 298.545 234.856 301.233 233.368C303.969 231.88 306.873 231.136 309.945 231.136C313.017 231.136 315.897 231.88 318.585 233.368C321.321 234.856 323.529 237.016 325.209 239.848C326.937 242.632 327.801 246.016 327.801 250C327.801 253.984 326.937 257.392 325.209 260.224C323.529 263.008 321.321 265.144 318.585 266.632C315.897 268.12 313.017 268.864 309.945 268.864ZM309.945 258.928C311.817 258.928 313.137 258.136 313.905 256.552C314.721 254.92 315.129 252.736 315.129 250C315.129 247.264 314.721 245.104 313.905 243.52C313.137 241.888 311.817 241.072 309.945 241.072C308.073 241.072 306.729 241.888 305.913 243.52C305.145 245.104 304.761 247.264 304.761 250C304.761 252.736 305.145 254.92 305.913 256.552C306.729 258.136 308.073 258.928 309.945 258.928ZM342.043 268L330.235 232H342.619L346.507 247.696C347.371 251.296 348.235 255.04 349.099 258.928H349.387C350.251 255.04 351.115 251.296 351.979 247.696L355.867 232H367.675L356.299 268H342.043ZM388.712 268.864C385.208 268.864 382.04 268.12 379.208 266.632C376.424 265.144 374.216 263.008 372.584 260.224C370.952 257.392 370.136 253.984 370.136 250C370.136 246.112 370.952 242.776 372.584 239.992C374.264 237.16 376.424 234.976 379.064 233.44C381.704 231.904 384.488 231.136 387.416 231.136C390.968 231.136 393.896 231.928 396.2 233.512C398.552 235.048 400.28 237.136 401.384 239.776C402.536 242.416 403.112 245.344 403.112 248.56C403.112 249.616 403.04 250.648 402.896 251.656C402.8 252.616 402.704 253.312 402.608 253.744H382.088C382.664 255.904 383.696 257.416 385.184 258.28C386.672 259.096 388.424 259.504 390.44 259.504C392.744 259.504 395.192 258.784 397.784 257.344L401.816 264.688C399.896 266.032 397.736 267.064 395.336 267.784C392.936 268.504 390.728 268.864 388.712 268.864ZM381.944 245.68H392.6C392.6 244.288 392.24 243.088 391.52 242.08C390.848 241.024 389.576 240.496 387.704 240.496C386.36 240.496 385.16 240.904 384.104 241.72C383.048 242.536 382.328 243.856 381.944 245.68ZM423.01 268.864C418.546 268.864 414.97 267.184 412.282 263.824C409.642 260.416 408.322 255.808 408.322 250C408.322 246.064 409.018 242.704 410.41 239.92C411.85 237.088 413.698 234.928 415.954 233.44C418.21 231.904 420.562 231.136 423.01 231.136C424.978 231.136 426.586 231.472 427.834 232.144C429.13 232.768 430.306 233.632 431.362 234.736L430.93 229.552V217.888H443.314V268H433.234L432.37 264.688H432.082C430.882 265.888 429.466 266.896 427.834 267.712C426.202 268.48 424.594 268.864 423.01 268.864ZM426.322 258.784C427.282 258.784 428.122 258.616 428.842 258.28C429.61 257.896 430.306 257.2 430.93 256.192V242.944C430.21 242.272 429.418 241.816 428.554 241.576C427.69 241.336 426.85 241.216 426.034 241.216C424.738 241.216 423.562 241.864 422.506 243.16C421.498 244.456 420.994 246.688 420.994 249.856C420.994 253.072 421.474 255.376 422.434 256.768C423.394 258.112 424.69 258.784 426.322 258.784Z" fill="white"/>
<path d="M214.057 338V333.968C216.649 331.504 218.937 329.28 220.921 327.296C222.937 325.28 224.505 323.44 225.625 321.776C226.745 320.08 227.305 318.512 227.305 317.072C227.305 315.568 226.905 314.432 226.105 313.664C225.337 312.864 224.297 312.464 222.985 312.464C221.897 312.464 220.905 312.784 220.009 313.424C219.145 314.032 218.329 314.752 217.561 315.584L213.721 311.792C215.225 310.192 216.761 308.992 218.329 308.192C219.897 307.36 221.769 306.944 223.945 306.944C225.961 306.944 227.721 307.344 229.225 308.144C230.729 308.944 231.897 310.08 232.729 311.552C233.593 312.992 234.025 314.688 234.025 316.64C234.025 318.336 233.545 320.08 232.585 321.872C231.657 323.632 230.457 325.408 228.985 327.2C227.513 328.96 225.945 330.704 224.281 332.432C225.049 332.336 225.913 332.256 226.873 332.192C227.833 332.096 228.665 332.048 229.369 332.048H235.513V338H214.057ZM252.313 338.576C249.049 338.576 246.409 337.216 244.393 334.496C242.409 331.776 241.417 327.824 241.417 322.64C241.417 317.456 242.409 313.552 244.393 310.928C246.409 308.272 249.049 306.944 252.313 306.944C255.577 306.944 258.201 308.272 260.185 310.928C262.201 313.552 263.209 317.456 263.209 322.64C263.209 327.824 262.201 331.776 260.185 334.496C258.201 337.216 255.577 338.576 252.313 338.576ZM252.313 333.104C253.113 333.104 253.833 332.816 254.473 332.24C255.113 331.632 255.609 330.576 255.961 329.072C256.345 327.568 256.537 325.424 256.537 322.64C256.537 319.856 256.345 317.728 255.961 316.256C255.609 314.784 255.113 313.776 254.473 313.232C253.833 312.688 253.113 312.416 252.313 312.416C251.545 312.416 250.841 312.688 250.201 313.232C249.561 313.776 249.049 314.784 248.665 316.256C248.281 317.728 248.089 319.856 248.089 322.64C248.089 325.424 248.281 327.568 248.665 329.072C249.049 330.576 249.561 331.632 250.201 332.24C250.841 332.816 251.545 333.104 252.313 333.104ZM268.776 338V333.968C271.368 331.504 273.656 329.28 275.64 327.296C277.656 325.28 279.224 323.44 280.344 321.776C281.464 320.08 282.024 318.512 282.024 317.072C282.024 315.568 281.624 314.432 280.824 313.664C280.056 312.864 279.016 312.464 277.704 312.464C276.616 312.464 275.624 312.784 274.728 313.424C273.864 314.032 273.048 314.752 272.28 315.584L268.44 311.792C269.944 310.192 271.48 308.992 273.048 308.192C274.616 307.36 276.488 306.944 278.664 306.944C280.68 306.944 282.44 307.344 283.944 308.144C285.448 308.944 286.616 310.08 287.448 311.552C288.312 312.992 288.744 314.688 288.744 316.64C288.744 318.336 288.264 320.08 287.304 321.872C286.376 323.632 285.176 325.408 283.704 327.2C282.232 328.96 280.664 330.704 279 332.432C279.768 332.336 280.632 332.256 281.592 332.192C282.552 332.096 283.384 332.048 284.088 332.048H290.232V338H268.776ZM306.023 338.576C303.559 338.576 301.447 338.176 299.687 337.376C297.959 336.576 296.535 335.536 295.415 334.256L298.679 329.792C299.607 330.688 300.631 331.424 301.751 332C302.871 332.576 304.071 332.864 305.351 332.864C306.855 332.864 308.055 332.56 308.951 331.952C309.847 331.312 310.295 330.416 310.295 329.264C310.295 328.368 310.071 327.6 309.623 326.96C309.175 326.288 308.359 325.776 307.175 325.424C305.991 325.072 304.295 324.896 302.087 324.896V319.904C304.839 319.904 306.727 319.536 307.751 318.8C308.775 318.032 309.287 317.04 309.287 315.824C309.287 314.768 308.967 313.952 308.327 313.376C307.687 312.768 306.759 312.464 305.543 312.464C304.455 312.464 303.463 312.704 302.567 313.184C301.703 313.664 300.791 314.32 299.831 315.152L296.279 310.832C297.687 309.616 299.175 308.672 300.743 308C302.311 307.296 304.023 306.944 305.879 306.944C309.015 306.944 311.543 307.68 313.463 309.152C315.415 310.592 316.391 312.64 316.391 315.296C316.391 316.864 315.943 318.208 315.047 319.328C314.183 320.448 312.935 321.36 311.303 322.064V322.256C313.063 322.768 314.503 323.648 315.623 324.896C316.775 326.112 317.351 327.712 317.351 329.696C317.351 331.584 316.823 333.2 315.767 334.544C314.743 335.856 313.367 336.864 311.639 337.568C309.943 338.24 308.071 338.576 306.023 338.576Z" fill="white"/>
<line x1="105" y1="323" x2="181" y2="323" stroke="white" stroke-width="4"/>
<line x1="351" y1="323" x2="427" y2="323" stroke="white" stroke-width="4"/>
<g clip-path="url(#clip0_305_4241)">
<g clip-path="url(#clip1_305_4241)">
<path d="M248.853 99C249.24 99 249.61 99.1541 249.884 99.4284L251.4 100.95H231.485L230.372 99.8322C230.066 99.5251 230.282 99 230.715 99H248.853Z" fill="white"/>
<path d="M232.457 101.925L234.4 103.875H254.314L252.371 101.925H232.457Z" fill="white"/>
<path d="M255.285 104.85H235.371L236.887 106.372C237.161 106.646 237.531 106.8 237.918 106.8H249.457L249.457 132.15C249.457 132.538 249.61 132.91 249.884 133.184L256.399 139.724C256.705 140.031 257.228 139.813 257.228 139.379L257.228 107.406C257.228 107.018 257.075 106.646 256.802 106.372L255.285 104.85Z" fill="white"/>
<path d="M288.314 107.406C288.314 107.018 288.161 106.646 287.887 106.372L286.371 104.85H263.057L261.541 106.372C261.268 106.646 261.114 107.018 261.114 107.406V139.379C261.114 139.813 261.637 140.031 261.943 139.724L268.459 133.184C268.732 132.91 268.885 132.538 268.885 132.15V122.4V106.8H280.543V117.525H273.944C273.815 117.525 273.691 117.576 273.6 117.668L268.885 122.4L284.002 137.572C284.275 137.846 284.645 138 285.032 138H292.97C293.403 138 293.619 137.475 293.313 137.168L281.028 124.838L282.485 123.375H279.571L278.6 122.4H283.457L285.4 120.45H276.657L275.685 119.475H286.371L287.887 117.953C288.161 117.679 288.314 117.307 288.314 116.919V107.406Z" fill="white"/>
<path d="M265.971 101.925L264.028 103.875H285.4L283.457 101.925H265.971Z" fill="white"/>
<path d="M269.489 99C269.103 99 268.732 99.1541 268.459 99.4284L266.943 100.95H282.485L280.969 99.4284C280.696 99.1541 280.325 99 279.939 99H269.489Z" fill="white"/>
</g>
<path d="M349.807 169.955C349.807 166.659 347.916 165.431 343.331 164.268C340.574 163.589 339.837 163.04 339.837 162.071C339.837 161.101 340.703 160.455 342.498 160.455C344.325 160.455 346.409 161.069 348.172 162.006L348.749 158.484C346.986 157.709 344.838 157.256 342.53 157.256C338.395 157.256 335.958 159.389 335.958 162.362C335.958 165.56 337.753 166.788 342.081 167.855C345.095 168.565 345.928 169.05 345.928 170.343C345.928 171.506 344.774 172.217 342.754 172.217C340.478 172.217 338.074 171.377 336.183 170.181L335.638 173.735C337.337 174.608 339.997 175.416 342.594 175.416C347.274 175.416 349.807 173.38 349.807 169.955Z" fill="white"/>
<path d="M333.486 175.05V157.5H329.236V169.419C327.857 170.771 326.371 171.672 324.864 171.672C323.133 171.672 322.436 170.61 322.436 169.065V157.5H318.186V170.192C318.186 173.441 319.981 175.404 323.411 175.404C325.815 175.404 327.779 174.157 329.478 172.612L330.086 175.05H333.486Z" fill="white"/>
<path d="M315.672 175.05V157.5H311.471V175.05H315.672Z" fill="white"/>
<path d="M313.586 149.825C314.997 149.825 316.097 150.854 316.097 152.27C316.097 153.686 314.997 154.715 313.586 154.715C312.176 154.715 311.031 153.686 311.031 152.27C311.031 150.854 312.176 149.825 313.586 149.825Z" fill="white"/>
<path d="M304.761 169.194C303.511 170.706 302.165 171.672 300.434 171.672C298.318 171.672 296.747 170.031 296.747 166.588C296.747 162.727 298.574 160.861 301.075 160.861C302.678 160.861 303.607 161.118 304.761 161.633V169.194ZM308.961 175.05V148.969L304.761 149.7V158.158C303.639 157.772 302.229 157.482 300.498 157.482C296.266 157.482 292.516 160.378 292.516 166.845C292.516 172.701 295.593 175.404 299.408 175.404C301.94 175.404 303.704 174.117 305.018 172.637L305.384 175.05H308.961Z" fill="white"/>
<path d="M286.577 170.256C285.231 171.479 283.692 172.219 282.089 172.219C280.615 172.219 279.717 171.414 279.717 170.159C279.717 168.486 281.032 166.974 286.577 166.363V170.256ZM290.745 175.05V163.113C290.745 158.995 288.501 157.322 283.885 157.322C281.032 157.322 278.884 157.901 276.768 158.737L277.281 162.083C279.236 161.279 281.256 160.7 283.372 160.7C285.391 160.7 286.577 161.408 286.577 163.306V163.853C279.14 164.561 275.55 166.363 275.55 170.578C275.55 173.602 277.634 175.404 280.743 175.404C283.436 175.404 285.327 174.246 286.834 172.798L287.219 175.05H290.745Z" fill="white"/>
<path d="M274.86 174.439L268.16 165.237C271.205 164.271 273.193 162.129 273.193 158.719C273.193 154.214 269.955 151.65 264.602 151.65H257.229V175.05H261.588V166.031H263.704L270.244 175.275L274.86 174.439ZM268.833 158.963C268.833 161.408 267.006 162.741 264.025 162.741H261.556V155.306H264.281C267.262 155.306 268.833 156.614 268.833 158.963Z" fill="white"/>
<path d="M255.035 175.05L254.522 171.543C254.105 171.639 253.56 171.672 253.016 171.672C251.284 171.672 250.611 170.899 250.611 169.484V160.912H255.043L254.315 157.5H250.611V151.406L246.476 152.141V157.5H243.629V160.912H246.476V170.192C246.476 174.117 248.784 175.34 252.246 175.34C253.528 175.34 254.362 175.211 255.035 175.05Z" fill="white"/>
<path d="M242.741 169.955C242.741 166.659 240.849 165.431 236.265 164.268C233.508 163.589 232.771 163.04 232.771 162.071C232.771 161.101 233.636 160.455 235.432 160.455C237.259 160.455 239.342 161.069 241.106 162.006L241.683 158.484C239.92 157.709 237.772 157.256 235.464 157.256C231.328 157.256 228.892 159.389 228.892 162.362C228.892 165.56 230.687 166.788 235.015 167.855C238.028 168.565 238.862 169.05 238.862 170.343C238.862 171.506 237.708 172.217 235.688 172.217C233.412 172.217 231.07 171.371 229.178 170.175L228.571 173.735C230.27 174.608 232.945 175.416 235.541 175.416C240.222 175.416 242.741 173.38 242.741 169.955Z" fill="white"/>
<path d="M226.628 175.05V157.5H222.378V169.419C221 170.771 219.513 171.672 218.007 171.672C216.276 171.672 215.578 170.61 215.578 169.065V157.5H211.328V170.192C211.328 173.441 213.123 175.404 216.553 175.404C218.958 175.404 220.922 174.157 222.621 172.612L223.228 175.05H226.628Z" fill="white"/>
<path d="M209.385 161.4L208.414 157.256C205.742 157.744 204.132 159.156 202.914 161.15L202.1 157.5H198.942V175.05L203.071 175.05V165.056C204.353 163.158 206.532 161.561 209.385 161.4Z" fill="white"/>
<path d="M201.614 155.55L200.643 151.65H180V155.55H187.771V175.05L192.143 175.05V155.55H201.614Z" fill="white"/>
</g>
<path d="M292.764 394.38C291.11 392.675 289.144 391.322 286.98 390.398C284.816 389.475 282.495 389 280.152 389C277.808 389 275.488 389.475 273.323 390.398C271.159 391.322 269.193 392.675 267.539 394.38L265 397.022L262.461 394.38C260.807 392.675 258.841 391.322 256.677 390.398C254.512 389.475 252.192 389 249.848 389C247.505 389 245.184 389.475 243.02 390.398C240.856 391.322 238.89 392.675 237.236 394.38C230.245 401.561 229.817 413.688 238.621 422.901L265 450L291.379 422.901C300.183 413.688 299.755 401.561 292.764 394.38Z" fill="white"/>
<defs>
<clipPath id="clip0_305_4241">
<rect width="170" height="78" fill="white" transform="translate(180 99)"/>
</clipPath>
<clipPath id="clip1_305_4241">
<rect width="64.1143" height="42.9" fill="white" transform="translate(230.028 97.05)"/>
</clipPath>
</defs>
</svg>
