<svg xmlns="http://www.w3.org/2000/svg" viewBox="0 0 400 93.74"><defs><style>.cls-1{fill:#071124;}</style></defs><g id="Layer_2" data-name="Layer 2"><g id="Layer_1-2" data-name="Layer 1"><path class="cls-1" d="M50.26,0c-5.28,0-12,6.74-12,18.47v5.72a22.7,22.7,0,0,0-12.65-3.45A25.39,25.39,0,0,0,0,46.19a25,25,0,0,0,25.49,25.4c7.13,0,12.75-2.57,16.43-6.11,2.43,3.34,5.43,5.19,8,5.19,2,0,3.05-1.12,3.05-3.59V3.34C53,1.11,52,0,50.26,0ZM26.61,58.26C19.48,58.26,15,53.07,15,46.14S19.48,34,26.61,34s11.63,5.19,11.63,12.12S33.73,58.26,26.61,58.26Zm81-35.63h-5c-3.59,0-4.9,1.46-4.9,4.9V45.8c0,7.37-3.78,11.73-9.89,11.73-6.3,0-9.5-4.17-9.5-11.92V27.53c0-3.59-1.45-4.9-4.89-4.9h-5c-3.45,0-4.9,1.31-4.9,4.9V46c0,15.8,7.95,25.59,21.91,25.59A20.91,20.91,0,0,0,101.05,65c2.33,3.68,5.53,5.72,8.39,5.72,1.74,0,3-1.12,3-3.59V27.53C112.49,23.94,111,22.63,107.6,22.63Zm39.35,49c15,0,26.13-11.35,26.13-25.4,0-14.4-11.2-25.4-26.13-25.4s-26.12,11.34-26.12,25.4C120.83,60.58,132.07,71.59,147,71.59Zm0-13.33c-6.73,0-11.19-5.19-11.19-12.12S140.17,34,147,34s11.2,5.19,11.2,12.12S153.79,58.26,147,58.26Zm39.16,11.48h5c3.39,0,4.89-1.3,4.89-4.89V3.59C196,1.11,195,0,193,0c-5,0-11.73,6.74-11.73,18.47V64.85C181.22,68.44,182.67,69.74,186.11,69.74ZM214.85,15.9A8.17,8.17,0,0,0,223.19,8a8.34,8.34,0,0,0-16.67,0A8.07,8.07,0,0,0,214.85,15.9Zm-2.51,53.84h5c3.58,0,4.89-1.45,4.89-4.89V27.53c0-3.44-1.31-4.9-4.89-4.9h-5c-3.59,0-4.9,1.46-4.9,4.9V64.85C207.44,68.24,208.75,69.74,212.34,69.74Zm48.75-48.95a21.84,21.84,0,0,0-16,6.84c-2.42-3.88-5.62-5.92-8.39-5.92-2,0-3.05,1.12-3.05,3.59V64.85c0,3.59,1.46,4.89,4.9,4.89h5c3.58,0,4.89-1.45,4.89-4.89V46.53c0-7.32,4.27-11.73,10.52-11.73s9.69,4.26,9.69,11.92V64.85c0,3.59,1.46,4.89,4.9,4.89h5c3.44,0,4.9-1.3,4.9-4.89V46C283.44,30.58,275.58,20.79,261.09,20.79Zm71.3,34.37a17,17,0,0,0,7-13.77A15.3,15.3,0,0,0,338,34.94a11.81,11.81,0,0,0,6.74-11c0-4.17-1.65-5.38-4.07-4.26-8.68,4-9.89,4.17-15.61,3.15a51.73,51.73,0,0,0-9.69-1.12,24.54,24.54,0,0,0-16.19,5.72,17.94,17.94,0,0,0-6.3,14,16.72,16.72,0,0,0,7,13.77A19.15,19.15,0,0,0,290,72.31c0,12.65,10.18,21.43,26,21.43,16.63,0,26.13-9.7,26.13-22.35A17.27,17.27,0,0,0,332.39,55.16ZM316.15,33.73c5.38,0,8.68,2.77,8.68,8.34a8.52,8.52,0,0,1-8.68,8.34,8.4,8.4,0,0,1-8.58-8.34C307.57,36.84,311,33.73,316.15,33.73Zm0,47.84c-6.44,0-11.24-4.17-11.24-9.5,0-5.91,4.51-9.5,11.24-9.5s11.34,3.59,11.34,9.5C327.49,77.5,322.79,81.57,316.15,81.57Zm57.73-10c15,0,26.12-11.35,26.12-25.4,0-14.4-11.2-25.4-26.12-25.4s-26.13,11.34-26.13,25.4C347.75,60.58,359,71.59,373.88,71.59Zm0-13.33c-6.74,0-11.2-5.19-11.2-12.12S367.09,34,373.88,34s11.19,5.19,11.19,12.12S380.71,58.26,373.88,58.26Z"/></g></g></svg>